<svg xmlns="http://www.w3.org/2000/svg" viewBox="798 1686 480 480">
  <rect x="798" y="1686" width="480" height="480" rx="64" fill="#111111"/>
  <rect x="817"    y="1736.7" width="32"    height="32"    fill="#888888"/>
  <rect x="856.5"  y="1866.7" width="61.7"  height="61.7"  fill="#888888"/>
  <rect x="930.4"  y="1710.1" width="98.3"  height="98.3"  fill="#F7931E"/>
  <rect x="1012.9" y="1868.4" width="137.4" height="137.4" fill="#F7931E"/>
  <path fill="#aaaaaa" d="M1178.2,1936.1h52.1c8.9,0,15.6,2.3,20.2,6.8c4.6,4.5,6.9,11.5,6.9,20.9v91.3c0,8.9-2.3,15.6-6.8,20.3
    c-4.5,4.7-11.3,7-20.3,7h-149.7v-48.7h-67.8v256.1h67.8v-139.6h149.7c6.4,0,13.2-0.7,20.3-2.2c7.1-1.5,14.2-3.8,21.2-6.9
    c7-3.1,13.8-7.2,20.2-12.1s12.1-11,17-18c4.9-7,8.8-15.2,11.7-24.5c2.9-9.3,4.4-19.8,4.4-31.4v-91.8c0-6.4-0.7-13.2-2.2-20.3
    c-1.5-7.1-3.8-14.2-6.9-21.2s-7.2-13.8-12.1-20.2c-5-6.4-10.9-12.1-18-16.9c-7-4.9-15.2-8.8-24.4-11.7c-9.2-3-19.7-4.4-31.3-4.4
    h-52.1V1936.1z"/>
</svg>
