<svg xmlns="http://www.w3.org/2000/svg"
	 viewBox="800 1700 2450 640">
<style>
	.st0{display:none;}
	.st2{fill:#333333;}
	.st3{fill:#F7931E;}
	.st4{fill:none;}
</style>
<g id="Layer_2">
	<g>
		<g>
			<g>
				<path class="st2" d="M1178.2,1936.1h52.1c8.9,0,15.6,2.3,20.2,6.8c4.6,4.5,6.9,11.5,6.9,20.9v91.3c0,8.9-2.3,15.6-6.8,20.3
					c-4.5,4.7-11.3,7-20.3,7h-149.7v-48.7h-67.8v256.1h67.8v-139.6h149.7c6.4,0,13.2-0.7,20.3-2.2c7.1-1.5,14.2-3.8,21.2-6.9
					c7-3.1,13.8-7.2,20.2-12.1s12.1-11,17-18c4.9-7,8.8-15.2,11.7-24.5c2.9-9.3,4.4-19.8,4.4-31.4v-91.8c0-6.4-0.7-13.2-2.2-20.3
					c-1.5-7.1-3.8-14.2-6.9-21.2s-7.2-13.8-12.1-20.2c-5-6.4-10.9-12.1-18-16.9c-7-4.9-15.2-8.8-24.4-11.7c-9.2-3-19.7-4.4-31.3-4.4
					h-52.1V1936.1z"/>
				<path class="st2" d="M1689,1963.2c0,9.4-1.7,19.5-5,30.4c-3.3,10.9-8.6,20.9-16,30.2c-7.4,9.3-17,17.1-28.9,23.3
					c-11.9,6.3-26.4,9.4-43.4,9.4h-191.1v-64.4h191.1c9.2,0,16.3-2.8,21.4-8.5c5-5.6,7.6-12.6,7.6-21c0-8.9-2.8-15.8-8.5-20.9
					c-5.7-5-12.5-7.6-20.5-7.6h-122.3c-9.2,0-16.3,2.8-21.4,8.5c-5,5.6-7.6,12.6-7.6,21v94.6c0,9,2.8,16.1,8.5,21.1
					c5.6,5,12.6,7.6,21,7.6h200.6v64.7h-201.1c-9.4,0-19.5-1.7-30.4-5c-10.9-3.3-20.9-8.6-30.2-16c-9.3-7.4-17.1-17-23.3-28.9
					c-6.3-11.9-9.4-26.4-9.4-43.4v-95.2c0-9.4,1.7-19.5,5-30.4c3.3-10.9,8.6-20.9,16-30.2c7.4-9.3,17-17.1,28.9-23.3
					c11.9-6.3,26.4-9.4,43.4-9.4h122.3c9.4,0,19.5,1.7,30.4,5c10.9,3.3,20.9,8.6,30.2,16c9.3,7.4,17.1,17,23.3,28.9
					C1685.8,1931.7,1689,1946.1,1689,1963.2z"/>
				<path class="st2" d="M1858.5,2151.7h-30.2c-9.7,0-20.1-1.7-31.2-5c-11-3.3-21.3-8.7-30.9-16.3c-9.6-7.6-17.5-17.4-23.7-29.5
					c-6.3-12.1-9.4-26.9-9.4-44.5v-305.8h67.8v305.8c0,8.3,2.6,15,7.8,19.9c5.2,5,11.7,7.4,19.6,7.4h30.2V2151.7z"/>
				<path class="st3" d="M2148.1,1937.6h-118.4v214.1h-68.6v-214.1h-88.1v-67.8h88.1v-92h68.6v92h118.4V1937.6z"/>
				<path class="st3" d="M2494.9,1963.2c0,9.4-1.7,19.5-5,30.4c-3.3,10.9-8.6,20.9-16,30.2c-7.4,9.3-17,17.1-28.9,23.3
					c-11.9,6.3-26.4,9.4-43.4,9.4h-182.4v-64.4h182.4c9.2,0,16.3-2.8,21.4-8.5c5-5.6,7.6-12.6,7.6-21c0-8.9-2.8-15.8-8.5-20.9
					c-5.7-5-12.5-7.6-20.5-7.6h-122.3c-9.2,0-16.3,2.8-21.4,8.5c-5,5.6-7.6,12.6-7.6,21v94.6c0,9,2.8,16.1,8.5,21.1
					c5.6,5,12.6,7.6,21,7.6h200.6v64.7h-201.1c-9.4,0-19.5-1.7-30.4-5c-10.9-3.3-20.9-8.6-30.2-16c-9.3-7.4-17.1-17-23.3-28.9
					c-6.3-11.9-9.4-26.4-9.4-43.4v-95.2c0-9.4,1.7-19.5,5-30.4c3.3-10.9,8.6-20.9,16-30.2c7.4-9.3,17-17.1,28.9-23.3
					c11.9-6.3,26.4-9.4,43.4-9.4h122.3c9.4,0,19.5,1.7,30.4,5c10.9,3.3,20.9,8.6,30.2,16c9.3,7.4,17.1,17,23.3,28.9
					C2491.8,1931.7,2494.9,1946.1,2494.9,1963.2z"/>
				<path class="st3" d="M2813.5,2151.7h-183.8c-9.4,0-19.6-1.7-30.8-5c-11.1-3.3-21.4-8.7-30.9-16.3c-9.5-7.6-17.4-17.4-23.7-29.5
					c-6.3-12.1-9.5-26.9-9.5-44.5v-91.8c0-6.4,0.7-13.2,2.2-20.3c1.5-7.1,3.8-14.2,6.9-21.2c3.1-7,7.2-13.8,12.1-20.2
					c5-6.4,11-12.1,18-16.9c7-4.9,15.2-8.8,24.4-11.7c9.2-3,19.6-4.4,31.3-4.4h183.8v67.8h-183.8c-8.9,0-15.6,2.3-20.2,6.8
					c-4.6,4.5-6.9,11.5-6.9,20.9v91.3c0,8.9,2.3,15.6,7,20.3c4.7,4.7,11.6,7,20.6,7h183.3V2151.7z"/>
				<path class="st3" d="M2938.4,2151.7h-67.8v-401h67.8V2151.7z M3183,2151.7h-67.8v-186.9c0-8.9-2.3-15.6-6.8-20.2
					c-4.5-4.6-11.3-6.9-20.3-6.9h-190.2v-67.8h190.2c6.4,0,13.2,0.7,20.3,2.2c7.1,1.5,14.2,3.8,21.3,6.9c7,3.1,13.8,7.2,20.2,12.1
					c6.4,5,12.1,11,16.9,18c4.9,7,8.8,15.2,11.7,24.4c3,9.2,4.4,19.6,4.4,31.3V2151.7z"/>
			</g>
			<g>
				<path class="st3" d="M1397.8,2273.4h45.8v6.8h-53.8v-66.6h52.9v6.8h-44.9v21.8h41.1v6.4h-41.1V2273.4z"/>
				<path class="st3" d="M1511.4,2273h41.1v7.1h-49.1v-66.6h8V2273z"/>
				<path class="st3" d="M1618.4,2273.4h45.8v6.8h-53.8v-66.6h52.9v6.8h-44.9v21.8h41.1v6.4h-41.1V2273.4z"/>
				<path class="st3" d="M1740,2280.2c-11.7,0-16.9-5.1-16.9-16.9v-32.7c0-11.8,5.2-16.9,16.9-16.9h27.8c11.7,0,16.9,5.1,16.9,16.9
					v6.4h-7.8v-5.2c0-8.3-2.9-11.2-11.2-11.2h-23.4c-8.1,0-11.2,3.1-11.2,11.2v30.4c0,8.1,3.1,11.2,11.2,11.2h23.4
					c8.3,0,11.2-2.9,11.2-11.2v-6.1h7.8v7.2c0,11.8-5.2,16.9-16.9,16.9H1740z"/>
				<path class="st3" d="M1900.3,2213.6v7.1h-26.1v59.4h-8v-59.4h-26.1v-7.1H1900.3z"/>
				<path class="st3" d="M2020.1,2280.2h-9.2l-19.7-26.7h-24.9v26.7h-8v-66.6h43.9c10.7,0,15,4.3,15,15v9.4c0,10.7-4.4,15-15,15
					l-2.2,0.1L2020.1,2280.2z M1966.3,2220v27.2h33.5c7.3,0,9.5-2.2,9.5-9.5v-8.2c0-7.3-2.2-9.5-9.5-9.5H1966.3z"/>
				<path class="st3" d="M2095.6,2280.2c-11.7,0-16.9-5.1-16.9-16.9v-32.7c0-11.8,5.2-16.9,16.9-16.9h29.9
					c11.7,0,16.9,5.1,16.9,16.9v32.7c0,11.8-5.2,16.9-16.9,16.9H2095.6z M2123.2,2273.2c8.3,0,11.2-2.9,11.2-11.2v-30.2
					c0-8.3-2.9-11.2-11.2-11.2h-25.3c-8.1,0-11.2,2.9-11.2,11.2v30.2c0,8.3,3.1,11.2,11.2,11.2H2123.2z"/>
				<path class="st3" d="M2344.4,2280.2h-9.2l-19.7-26.7h-24.9v26.7h-8v-66.6h43.9c10.7,0,15,4.3,15,15v9.4c0,10.7-4.4,15-15,15
					l-2.2,0.1L2344.4,2280.2z M2290.6,2220v27.2h33.5c7.3,0,9.5-2.2,9.5-9.5v-8.2c0-7.3-2.2-9.5-9.5-9.5H2290.6z"/>
				<path class="st3" d="M2411.9,2273.4h45.8v6.8H2404v-66.6h52.9v6.8h-44.9v21.8h41.1v6.4h-41.1V2273.4z"/>
				<path class="st3" d="M2516.5,2261.6h7.8v4.5c0,5.6,2,7.6,7.6,7.6h30.8c5.6,0,7.6-2,7.6-7.6v-8c0-5.4-1.8-6.9-7.6-7.6l-32.5-3.1
					c-8.8-0.9-12.7-4.3-12.7-12.7v-8.3c0-8.7,4.1-12.7,12.7-12.7h34c8.7,0,12.7,4,12.7,12.7v4.3h-7.8v-2.9c0-5.6-2-7.6-7.6-7.6
					h-28.5c-5.6,0-7.6,2-7.6,7.6v5.2c0,5.4,1.9,6.9,7.6,7.6l32.5,3.2c8.8,0.8,12.7,4.1,12.7,12.7v10.9c0,8.7-4,12.7-12.7,12.7h-36.3
					c-8.7,0-12.7-4-12.7-12.7V2261.6z"/>
				<path class="st3" d="M2648.6,2273.4h45.8v6.8h-53.8v-66.6h52.9v6.8h-44.9v21.8h41.1v6.4h-41.1V2273.4z"/>
				<path class="st3" d="M2812.5,2280.2l-8.1-17.2h-39.8l-8.1,17.2h-8.5l32.4-66.6h8.6l32.4,66.6H2812.5z M2767.7,2256.6h33.8
					l-16.8-35.9L2767.7,2256.6z"/>
				<path class="st3" d="M2940.1,2280.2h-9.2l-19.7-26.7h-24.9v26.7h-8v-66.6h43.9c10.7,0,15,4.3,15,15v9.4c0,10.7-4.4,15-15,15
					l-2.2,0.1L2940.1,2280.2z M2886.2,2220v27.2h33.5c7.3,0,9.5-2.2,9.5-9.5v-8.2c0-7.3-2.2-9.5-9.5-9.5H2886.2z"/>
				<path class="st3" d="M3015.6,2280.2c-11.7,0-16.9-5.1-16.9-16.9v-32.7c0-11.8,5.2-16.9,16.9-16.9h27.8
					c11.7,0,16.9,5.1,16.9,16.9v6.4h-7.8v-5.2c0-8.3-2.9-11.2-11.2-11.2h-23.4c-8.1,0-11.2,3.1-11.2,11.2v30.4
					c0,8.1,3.1,11.2,11.2,11.2h23.4c8.3,0,11.2-2.9,11.2-11.2v-6.1h7.8v7.2c0,11.8-5.2,16.9-16.9,16.9H3015.6z"/>
				<path class="st3" d="M3175,2213.6h8v66.6h-8v-31.5h-44.9v31.5h-8v-66.6h8v28.1h44.9V2213.6z"/>
			</g>
		</g>
		<line class="st4" x1="1178.2" y1="1936.1" x2="1178.2" y2="1868.4"/>
		<rect x="1012.9" y="1868.4" class="st3" width="137.4" height="137.4"/>
		<rect x="930.4" y="1710.1" class="st3" width="98.3" height="98.3"/>
		<rect x="856.5" y="1866.7" class="st2" width="61.7" height="61.7"/>
		<rect x="817" y="1736.7" class="st2" width="32" height="32"/>
	</g>
</g>
</svg>